<?xml version="1.0" encoding="UTF-8"?>
<svg id="_レイヤー_1" data-name="レイヤー_1" xmlns="http://www.w3.org/2000/svg" version="1.1" viewBox="0 0 268.13 65.5">
  <!-- Generator: Adobe Illustrator 29.0.0, SVG Export Plug-In . SVG Version: 2.1.0 Build 186)  -->
  <defs>
    <style>
      .st0 {
        fill: #dce2ee;
      }

      .st1 {
        fill: #457ef7;
      }
    </style>
  </defs>
  <g>
    <path class="st0" d="M112.32,31.86c-.2-1.49-.59-3.02-1.15-4.58s-1.39-3-2.46-4.33c-1.08-1.32-2.47-2.39-4.19-3.21-1.72-.81-3.85-1.22-6.38-1.22-3.3,0-6.12.71-8.45,2.14-1.44.88-2.64,1.99-3.66,3.3v-4.45h-6.35v36.65h7.19v-19.07c0-2.17.24-4.01.73-5.53s1.15-2.74,2-3.67c.85-.93,1.84-1.6,2.97-2.02,1.13-.42,2.33-.63,3.6-.63,1.94,0,3.52.4,4.73,1.19,1.21.79,2.15,1.83,2.82,3.12.67,1.29,1.12,2.69,1.36,4.19.24,1.5.36,2.97.36,4.39v18.02h7.19v-20.36c0-1.13-.1-2.44-.31-3.94Z"/>
    <path class="st0" d="M136.96,57.17c-3.67,0-6.84-.83-9.54-2.48-2.69-1.65-4.77-3.93-6.23-6.84s-2.19-6.26-2.19-10.06.75-7.19,2.24-10.09c1.49-2.91,3.58-5.17,6.28-6.79,2.69-1.62,5.84-2.43,9.43-2.43s6.84.83,9.53,2.48c2.69,1.65,4.77,3.92,6.24,6.82s2.21,6.23,2.21,10.01-.74,7.19-2.22,10.09c-1.48,2.91-3.57,5.18-6.26,6.82s-5.86,2.46-9.5,2.46ZM136.96,50.49c3.51,0,6.12-1.18,7.85-3.55,1.73-2.36,2.6-5.41,2.6-9.14s-.88-6.88-2.63-9.18c-1.75-2.29-4.36-3.44-7.82-3.44-2.38,0-4.33.54-5.87,1.61-1.54,1.07-2.68,2.56-3.43,4.45-.75,1.89-1.12,4.08-1.12,6.57,0,3.85.88,6.92,2.65,9.23,1.76,2.31,4.35,3.46,7.77,3.46Z"/>
    <path class="st0" d="M171.29,56.16l-13.3-36.65h7.16l9.74,27.76,9.74-27.76h7.16l-13.3,36.65h-7.19Z"/>
    <path class="st0" d="M226.5,29.28c-.14-1.33-.5-2.6-1.09-3.8-1.13-2.42-2.91-4.19-5.34-5.31-2.43-1.12-5.29-1.68-8.57-1.68-4.23,0-7.62.93-10.16,2.78-2.54,1.86-4.27,4.35-5.17,7.5l6.62,2.04c.63-2.06,1.75-3.53,3.36-4.43,1.61-.89,3.37-1.34,5.29-1.34,3.05,0,5.21.7,6.46,2.09,1.1,1.21,1.7,2.99,1.8,5.34-1.39.2-2.77.39-4.18.59-2.27.32-4.44.66-6.5,1.02-2.06.36-3.9.78-5.53,1.25-1.88.61-3.46,1.41-4.75,2.39-1.29.98-2.26,2.18-2.92,3.58s-.98,3.03-.98,4.89c0,1.99.47,3.82,1.41,5.48.94,1.66,2.32,3,4.16,4,1.83,1.01,4.11,1.51,6.82,1.51,3.42,0,6.29-.68,8.63-2.05,1.75-1.02,3.27-2.45,4.56-4.28v5.32h6.28v-22.56c0-1.54-.07-2.97-.2-4.31ZM218.9,44.11c-.27,1.2-.85,2.35-1.73,3.46-.88,1.11-2.05,2.02-3.5,2.73-1.45.71-3.18,1.07-5.19,1.07-1.52,0-2.76-.24-3.73-.71-.97-.47-1.7-1.11-2.17-1.92-.48-.8-.71-1.68-.71-2.63s.22-1.8.66-2.48c.44-.68,1.04-1.26,1.8-1.73s1.62-.88,2.6-1.22c1.15-.36,2.47-.67,3.95-.93,1.48-.26,3.14-.53,4.97-.8,1.17-.17,2.44-.36,3.78-.57-.01.6-.04,1.28-.07,2.06-.06,1.36-.28,2.58-.66,3.66Z"/>
    <path class="st0" d="M264.54,39.84h3.53c.27-4.39-.24-8.18-1.54-11.37-1.3-3.19-3.26-5.65-5.89-7.38s-5.8-2.6-9.53-2.6-6.71.8-9.4,2.41c-2.69,1.61-4.79,3.88-6.29,6.82-1.5,2.94-2.26,6.41-2.26,10.42,0,3.78.76,7.1,2.29,9.96,1.53,2.86,3.66,5.09,6.41,6.68,2.75,1.59,5.94,2.39,9.58,2.39s6.77-.9,9.67-2.7c2.89-1.8,5.06-4.34,6.48-7.62l-6.96-2.21c-.9,1.88-2.17,3.32-3.78,4.33-1.62,1.01-3.53,1.51-5.75,1.51-3.37,0-5.95-1.1-7.74-3.31-1.48-1.82-2.33-4.28-2.59-7.35h23.76ZM243.36,28.13c1.79-2.24,4.46-3.36,8.01-3.36,3.21,0,5.6,1.02,7.18,3.05,1.18,1.53,1.93,3.69,2.25,6.48h-19.86c.38-2.54,1.18-4.61,2.43-6.18Z"/>
  </g>
  <g>
    <path class="st1" d="M66.68,16.16h-10.13c-.15-.59-.39-1.15-.69-1.67l7.48-7.48c.66-.66.66-1.74,0-2.41s-1.74-.66-2.41,0l-7.48,7.48c-.52-.3-1.08-.53-1.67-.69V1.7c0-.94-.76-1.7-1.7-1.7s-1.7.76-1.7,1.7v9.71c-.59.16-1.14.39-1.65.69l-7.5-7.5c-.66-.66-1.74-.66-2.41,0s-.66,1.74,0,2.41l7.52,7.52c-.29.51-.51,1.05-.66,1.63h-10.19c-.94,0-1.7.76-1.7,1.7s.76,1.7,1.7,1.7h10.21c.15.57.38,1.11.67,1.61l-7.54,7.54c-.66.66-.66,1.74,0,2.41s1.74.66,2.41,0l7.54-7.54c.5.29,1.04.52,1.61.67v9.77c0,.94.76,1.7,1.7,1.7s1.7-.76,1.7-1.7v-9.76c.58-.15,1.13-.37,1.63-.66l7.52,7.52c.66.66,1.74.66,2.41,0s.66-1.74,0-2.41l-7.5-7.5c.3-.51.54-1.06.69-1.65h10.14c.94,0,1.7-.76,1.7-1.7s-.76-1.7-1.7-1.7Z"/>
    <path class="st1" d="M31.97,34.05l.02-.02L6.46,8.5c-.68-.68-1.63-1.11-2.68-1.11-2.09,0-3.79,1.69-3.79,3.79,0,1.05.42,1.99,1.11,2.68l22.62,22.62L1.16,59.04c-.68.68-1.11,1.63-1.11,2.68,0,2.09,1.69,3.79,3.79,3.79,1.05,0,1.99-.42,2.68-1.11h0s25.24-25.24,25.24-25.24h0c.68-.68,1.11-1.63,1.11-2.68,0-.93-.35-1.77-.9-2.43Z"/>
  </g>
</svg>